<?xml version="1.0" standalone="no"?>
<!DOCTYPE svg PUBLIC "-//W3C//DTD SVG 20010904//EN"
 "http://www.w3.org/TR/2001/REC-SVG-20010904/DTD/svg10.dtd">
<svg version="1.0" xmlns="http://www.w3.org/2000/svg"
 width="200.000000pt" height="200.000000pt" viewBox="0 0 200.000000 200.000000"
 preserveAspectRatio="xMidYMid meet">
<metadata>
Created by potrace 1.14, written by Peter Selinger 2001-2017
</metadata>
<g transform="translate(0.000000,200.000000) scale(0.100000,-0.100000)"
fill="#000000" stroke="none">
<path d="M0 1000 l0 -1000 1000 0 1000 0 0 1000 0 1000 -1000 0 -1000 0 0
-1000z m1400 736 c99 -50 118 -72 157 -192 25 -78 26 -88 16 -150 -10 -55 -18
-73 -48 -104 l-37 -38 140 -7 139 -7 11 -35 c10 -33 7 -42 -54 -156 -64 -118
-65 -123 -53 -157 8 -20 13 -72 12 -122 -1 -73 -7 -102 -38 -185 -20 -54 -40
-101 -44 -105 -3 -4 -67 -19 -141 -33 -74 -15 -166 -32 -205 -40 -38 -8 -94
-17 -122 -21 -52 -6 -53 -6 -53 19 0 14 -3 28 -8 30 -14 9 -62 -5 -62 -18 0
-7 -7 -15 -15 -19 -8 -3 -15 -12 -15 -21 0 -8 -1 -15 -2 -15 -2 0 -66 -12
-143 -26 -155 -28 -366 -64 -377 -64 -5 0 -26 16 -48 36 l-40 36 0 179 0 179
-25 0 c-23 0 -25 3 -25 50 0 36 -14 85 -50 178 -27 71 -50 133 -50 139 0 5 9
18 20 28 18 16 32 17 130 11 l111 -6 -39 70 -39 71 82 136 c53 88 91 141 109
150 36 19 172 53 212 53 38 0 124 -71 144 -120 16 -40 31 -38 73 9 45 50 51
61 72 148 9 39 24 78 33 86 32 28 135 77 161 76 14 0 64 -19 111 -43z"/>
<path d="M1212 1724 c-69 -34 -72 -37 -87 -86 -8 -29 -15 -62 -15 -74 0 -12
-11 -35 -24 -51 -12 -15 -28 -38 -35 -50 -6 -12 -31 -36 -55 -52 l-44 -30 -6
30 c-5 29 -83 122 -118 140 -22 12 -186 -22 -222 -46 -14 -9 -59 -73 -101
-141 l-76 -125 24 -42 c13 -23 34 -59 46 -79 l23 -38 -136 0 c-128 0 -136 -1
-136 -20 0 -10 4 -29 10 -42 50 -119 80 -214 80 -253 0 -41 2 -45 25 -45 l25
0 0 -184 0 -184 38 -29 37 -29 143 25 c128 22 142 26 136 43 -4 15 0 18 25 18
17 0 31 -4 31 -10 0 -13 18 -13 97 1 51 9 63 15 63 30 0 10 5 19 10 19 6 0 10
7 10 15 0 13 22 20 90 27 20 3 26 -2 30 -27 4 -19 11 -29 20 -28 113 16 458
87 466 96 6 7 25 52 42 101 35 98 42 197 20 281 -12 45 -12 45 50 163 34 66
62 124 62 130 0 31 -32 42 -128 43 -53 1 -124 4 -156 8 l-59 6 35 25 c57 40
85 81 97 142 11 53 10 62 -18 143 -17 47 -35 95 -41 105 -9 16 -181 110 -202
110 -3 0 -37 -16 -76 -36z m163 -53 c64 -34 71 -41 94 -94 13 -31 22 -60 19
-62 -7 -8 -88 6 -88 14 0 4 12 11 26 17 26 9 26 9 8 32 -15 17 -31 23 -71 24
-55 2 -68 12 -33 23 30 9 25 20 -19 40 -42 18 -88 15 -128 -11 -17 -10 -21
-11 -18 -2 9 22 98 68 120 62 11 -4 51 -23 90 -43z m-637 -188 c-43 -17 -63
-30 -55 -35 8 -5 5 -8 -9 -8 -12 0 -32 -9 -45 -20 l-24 -19 40 -1 40 -1 -60
-19 c-32 -11 -61 -17 -63 -15 -2 2 10 24 28 48 31 44 68 66 140 86 69 18 74
10 8 -16z m646 -50 c-23 -17 -37 -6 -23 18 9 17 13 18 26 8 13 -12 13 -14 -3
-26z m66 -12 c0 -6 -4 -13 -10 -16 -5 -3 -10 1 -10 9 0 9 5 16 10 16 6 0 10
-4 10 -9z m-231 -26 c36 -18 101 -93 101 -116 0 -9 -9 -36 -20 -60 -22 -49
-24 -44 -10 19 10 40 8 46 -22 88 -17 24 -45 53 -62 64 -36 23 -28 26 13 5z
m227 -72 c-15 -29 -66 -82 -66 -69 0 7 72 95 78 96 1 0 -4 -12 -12 -27z m-822
-88 c-4 -8 -10 -15 -14 -15 -4 0 -13 7 -20 15 -11 13 -8 15 13 15 19 0 25 -4
21 -15z m108 -5 c-24 -20 -47 -18 -56 6 -4 11 4 14 37 14 l42 -1 -23 -19z
m622 -57 c8 -51 8 -158 -1 -150 -8 9 -31 176 -24 182 11 12 19 2 25 -32z m281
-24 c25 -5 7 -6 -50 -2 -49 3 -106 9 -125 13 -45 11 120 0 175 -11z m-1066
-31 c12 -21 20 -38 17 -38 -8 0 -46 62 -46 74 0 11 1 10 29 -36z m1026 2 l50
-7 -55 -1 c-30 0 -77 3 -105 8 l-50 7 55 1 c30 0 78 -3 105 -8z m-659 -31
c-16 -23 -56 -54 -56 -44 0 8 59 65 67 65 2 0 -2 -9 -11 -21z m483 7 c10 -12
8 -13 -8 -9 -12 3 -21 9 -21 14 0 14 16 11 29 -5z m191 -10 c8 -2 -11 -4 -42
-5 -32 0 -58 2 -58 7 0 7 64 6 100 -2z m-29 -44 c-13 -2 -27 0 -32 5 -6 6 3 7
23 4 28 -4 29 -6 9 -9z m-981 -2 c0 -6 -55 -10 -145 -10 l-145 0 6 -27 c4 -16
13 -45 20 -65 14 -40 9 -53 -5 -15 -5 12 -18 46 -30 75 l-21 52 160 0 c100 0
160 -4 160 -10z m411 -56 c17 -8 28 -18 25 -21 -3 -3 -17 2 -32 12 -14 9 -35
15 -45 12 -10 -3 -17 -1 -13 4 8 13 31 11 65 -7z m-75 -56 l29 -32 -29 22
c-16 12 -37 22 -48 22 -11 0 -16 5 -13 10 11 18 31 11 61 -22z m74 -11 c0 -16
-18 3 -23 25 -6 22 -5 22 8 4 8 -11 15 -24 15 -29z m-215 18 c20 -9 24 -14 12
-14 -9 -1 -26 5 -37 11 -16 10 -24 10 -42 -1 -21 -13 -22 -13 -9 2 16 20 36
21 76 2z m-325 -19 c0 -11 -19 -15 -25 -6 -3 5 1 10 9 10 9 0 16 -2 16 -4z
m1120 -36 c10 -6 15 -27 15 -67 0 -52 -2 -58 -22 -61 -17 -3 -22 3 -25 24 -4
37 -24 41 -33 7 -14 -58 -50 -74 -39 -18 5 27 3 35 -9 35 -19 0 -32 -18 -41
-52 -4 -19 -13 -28 -26 -28 -31 0 -29 89 3 124 29 34 144 57 177 36z m-380
-129 c0 -54 -3 -70 -16 -75 -27 -10 -34 3 -34 68 0 68 4 76 32 76 16 0 18 -9
18 -69z m-715 33 c-46 -7 -125 -8 -125 -1 0 4 33 6 73 6 39 -1 63 -3 52 -5z
m375 -100 c0 -72 -1 -75 -22 -72 -15 2 -24 11 -26 25 -3 21 -5 20 -33 -12 -26
-30 -82 -55 -95 -42 -10 9 126 166 148 170 13 2 24 5 26 6 1 0 2 -33 2 -75z
m-220 -42 l0 -69 -97 -21 c-54 -12 -101 -22 -105 -22 -5 0 -8 34 -8 75 0 73 1
75 25 75 23 0 25 -4 25 -40 0 -44 3 -45 73 -34 36 6 37 8 37 49 0 46 5 55 32
55 16 0 18 -9 18 -68z m480 50 c0 -15 -15 -22 -75 -35 -94 -21 -115 -21 -115
-2 0 18 13 24 89 41 83 18 101 17 101 -4z"/>
</g>
</svg>
